<svg id="Capa_1" data-name="Capa 1" xmlns="http://www.w3.org/2000/svg" viewBox="0 0 349.1 123.8"><defs><style>.cls-1{fill:#fff;}</style></defs><g id="Logo"><path class="cls-1" d="M319.35,145.7H306l-18.5-38.8c4.9.5,9.8,1.1,14.6,1.8Z" transform="translate(-8.35 -21.9)"/><path class="cls-1" d="M293.85,91.2c-5-1-10-2-15-2.8L260,48.2,243,84c-4.5-.4-9-.7-13.4-.9l28.9-61.2h3Z" transform="translate(-8.35 -21.9)"/><path class="cls-1" d="M234.15,102.7l-1,2.2-19.3,40.8h-13.8l20.6-43.5c4.5.2,9,.4,13.5.5Z" transform="translate(-8.35 -21.9)"/><path class="cls-1" d="M186.65,145.7h-12.1l-6-43.7c3.9-.1,7.9-.2,11.9-.2Z" transform="translate(-8.35 -21.9)"/><path class="cls-1" d="M139.45,103.2l-21,42.5h-3.2l-19.2-38.8c4-.4,8-.9,12.1-1.2l8.8,17.9,9.5-19.4c4.3-.4,8.7-.7,13-1Z" transform="translate(-8.35 -21.9)"/><path class="cls-1" d="M100.65,90.6c-4,.7-7.9,1.3-11.8,2L71.05,56.5l-5.5,40.7-12,2.6,11.1-77.9h2Z" transform="translate(-8.35 -21.9)"/><path class="cls-1" d="M63.55,110.9l-4.7,34.8h-12l4.7-33,12-1.8Z" transform="translate(-8.35 -21.9)"/><path class="cls-1" d="M177.55,82.8l-11.7.6-3.6-26.2-13.6,27.6c-4.5.4-8.9.8-13.3,1.3l31.5-64.2h2Z" transform="translate(-8.35 -21.9)"/><path id="Trazado" class="cls-1" d="M357.45,117.8c-14.8-2.8-30.5-5.5-47.2-7.7-4.8-.7-9.7-1.3-14.6-1.9q-9.9-1.2-20.1-2.1c-10.7-1-21.8-1.8-33.1-2.5-4.5-.2-9-.5-13.6-.6-9.5-.4-19.1-.6-29-.6h-11.3c-4,0-7.9.1-11.9.2-9.9.2-19.5.6-29,1.1-4.4.2-8.7.5-13,.8-6.2.4-12.3.9-18.4,1.5l-12.1,1.2c-11.2,1.2-22,2.5-32.5,4.1l-12,1.8c-18.3,2.9-35.4,6.3-51.3,9.8,1.8-.6,21.3-7.3,51.9-14.5,3.8-.9,7.9-1.8,12.1-2.7,8.8-1.9,18.3-3.8,28.4-5.5,3.8-.7,7.8-1.3,11.8-1.9,8.5-1.3,17.4-2.6,26.6-3.6,4.4-.5,8.8-1,13.3-1.4,7.4-.7,14.9-1.2,22.6-1.7l11.7-.6c15.4-.6,31.1-.5,47.1.4q6.75.3,13.5.9c4.2.3,8.3.8,12.5,1.2a388.19,388.19,0,0,1,41.4,6.8h.1c1.6.4,3.3.7,4.9,1.1A318.27,318.27,0,0,1,357.45,117.8Z" transform="translate(-8.35 -21.9)"/></g></svg>