<?xml version="1.0" encoding="utf-8"?>
<!-- Generator: Adobe Illustrator 25.0.0, SVG Export Plug-In . SVG Version: 6.00 Build 0)  -->
<svg version="1.1" id="Capa_1" xmlns="http://www.w3.org/2000/svg" xmlns:xlink="http://www.w3.org/1999/xlink" x="0px" y="0px"
	 viewBox="0 0 365.8 167.6" style="enable-background:new 0 0 365.8 167.6;" xml:space="preserve">
<style type="text/css">
	.st0{fill:#FFFFFF;}
</style>
<g id="Logo">
	<path class="st0" d="M127.1,152.2h3c1.2-0.1,2.4,0.1,3.6,0.5c0.7,0.3,1.3,0.8,1.7,1.5s0.7,1.6,0.6,2.5c0,0.9-0.2,1.8-0.7,2.5
		s-1.3,1.2-2.1,1.5l3.6,6.7h-3.1l-3.4-6.4H130v6.4h-2.9V152.2z M130,158.1h0.9c0.7,0.1,1.3-0.1,1.9-0.4c0.4-0.3,0.6-0.7,0.5-1.2
		c0-0.3-0.1-0.6-0.2-0.9c-0.2-0.2-0.4-0.4-0.7-0.5c-0.5-0.1-1-0.2-1.6-0.2H130V158.1z M139.1,152.2h8.2v2.8H142v2.7h5.4v2.8H142v4
		h5.4v2.8h-8.2L139.1,152.2L139.1,152.2z M150.1,152.2h7.5v2.8h-4.7v2.7h4.6v2.8h-4.6v6.8H150L150.1,152.2z M160.3,152.2h3
		c1.2-0.1,2.4,0.1,3.6,0.5c0.7,0.3,1.3,0.8,1.7,1.5s0.7,1.6,0.6,2.5c0,0.9-0.2,1.8-0.7,2.5s-1.3,1.2-2.1,1.5l3.6,6.7h-3.1l-3.4-6.4
		h-0.3v6.4h-2.9L160.3,152.2z M163.2,158.1h0.9c0.7,0.1,1.3-0.1,1.9-0.4c0.4-0.3,0.6-0.7,0.5-1.2c0-0.3-0.1-0.6-0.2-0.9
		c-0.2-0.2-0.4-0.4-0.7-0.5c-0.5-0.1-1-0.2-1.6-0.2h-0.8L163.2,158.1z M172.1,152.2h2.9v15.1h-2.9V152.2z M179.6,152.2h2.8l3.5,10.5
		l3.5-10.5h2.8l2.5,15.1H192l-1.6-9.5l-3.2,9.5h-2.5l-3.2-9.5l-1.7,9.5H177L179.6,152.2z M201.6,152.2h2.9l5.8,15.1h-3l-1.2-3.1H200
		l-1.2,3.1h-3L201.6,152.2z M203.1,156.2l-2,5.2h4L203.1,156.2z M212.8,152.2h3c1.2-0.1,2.4,0.1,3.6,0.5c0.7,0.3,1.3,0.8,1.7,1.5
		s0.7,1.6,0.6,2.5c0,0.9-0.2,1.8-0.7,2.5s-1.3,1.2-2.1,1.5l3.6,6.7h-3.1L216,161h-0.3v6.4h-2.9L212.8,152.2z M215.6,158.1h0.9
		c0.7,0.1,1.3-0.1,1.9-0.4c0.4-0.3,0.6-0.7,0.5-1.2c0-0.3-0.1-0.6-0.2-0.9c-0.2-0.2-0.4-0.4-0.7-0.5c-0.5-0.1-1-0.2-1.6-0.2h-0.8
		L215.6,158.1z M238.6,154.8l-2,1.9c-1.2-1.4-2.8-2.1-4.6-2.2c-2.8,0-5.1,2.2-5.1,5v0.1c0,0.9,0.2,1.9,0.7,2.7
		c0.4,0.8,1.1,1.4,1.9,1.8c0.8,0.4,1.7,0.7,2.7,0.7c0.8,0,1.6-0.2,2.3-0.5c0.9-0.4,1.6-1,2.3-1.7l1.9,2c-0.9,0.9-2,1.7-3.2,2.3
		c-1.1,0.4-2.2,0.7-3.4,0.6c-4.4,0-8-3.5-8-8c0-1.4,0.4-2.8,1-4c0.7-1.2,1.7-2.2,2.9-2.8c1.3-0.7,2.7-1.1,4.1-1.1
		C234.6,151.8,237,152.8,238.6,154.8L238.6,154.8z M319.2,123.8h-13.4L287.3,85c4.9,0.5,9.8,1.1,14.6,1.8L319.2,123.8z M293.7,69.3
		c-5-1-10-2-15-2.8l-18.9-40.2l-17,35.8c-4.5-0.4-9-0.7-13.4-0.9L258.3,0h3L293.7,69.3z M234,80.8l-1,2.2l-19.3,40.8h-13.8
		l20.6-43.5C225,80.5,229.5,80.7,234,80.8L234,80.8z M186.5,123.8h-12.1l-6-43.7c3.9-0.1,7.9-0.2,11.9-0.2L186.5,123.8z M139.3,81.3
		l-21,42.5h-3.2L95.9,85c4-0.4,8-0.9,12.1-1.2l8.8,17.9l9.5-19.4C130.6,81.9,135,81.6,139.3,81.3L139.3,81.3z M100.5,68.7
		c-4,0.7-7.9,1.3-11.8,2L70.9,34.6l-5.5,40.7l-12,2.6L64.5,0h2L100.5,68.7z M63.4,89l-4.7,34.8h-12l4.7-33
		C55.4,90.2,59.4,89.6,63.4,89L63.4,89z M177.4,60.9l-11.7,0.6l-3.6-26.2l-13.6,27.6c-4.5,0.4-8.9,0.8-13.3,1.3L166.7,0h2
		L177.4,60.9z"/>
	<path id="Trazado" class="st0" d="M357.3,95.9c-14.8-2.8-30.5-5.5-47.2-7.7c-4.8-0.7-9.7-1.3-14.6-1.9c-6.6-0.8-13.3-1.5-20.1-2.1
		c-10.7-1-21.8-1.8-33.1-2.5c-4.5-0.2-9-0.5-13.6-0.6c-9.5-0.4-19.1-0.6-29-0.6c-3.8,0-7.5,0-11.3,0c-4,0-7.9,0.1-11.9,0.2
		c-9.9,0.2-19.5,0.6-29,1.1c-4.4,0.2-8.7,0.5-13,0.8c-6.2,0.4-12.3,0.9-18.4,1.5c-4.1,0.4-8.1,0.8-12.1,1.2
		c-11.2,1.2-22,2.5-32.5,4.1c-4,0.6-8,1.2-12,1.8c-18.3,2.9-35.4,6.3-51.3,9.8c1.8-0.6,21.3-7.3,51.9-14.5c3.8-0.9,7.9-1.8,12.1-2.7
		c8.8-1.9,18.3-3.8,28.4-5.5c3.8-0.7,7.8-1.3,11.8-1.9c8.5-1.3,17.4-2.6,26.6-3.6c4.4-0.5,8.8-1,13.3-1.4c7.4-0.7,14.9-1.2,22.6-1.7
		c3.9-0.2,7.8-0.4,11.7-0.6c15.4-0.6,31.1-0.5,47.1,0.4c4.5,0.2,9,0.5,13.5,0.9c4.2,0.3,8.3,0.8,12.5,1.2
		c13.9,1.5,27.7,3.8,41.4,6.8h0.1c1.6,0.4,3.3,0.7,4.9,1.1C323.8,83.6,340.8,89,357.3,95.9z"/>
</g>
</svg>
