<?xml version="1.0" encoding="utf-8"?>
<!-- Generator: Adobe Illustrator 25.0.0, SVG Export Plug-In . SVG Version: 6.00 Build 0)  -->
<svg version="1.1" id="Capa_1" xmlns="http://www.w3.org/2000/svg" xmlns:xlink="http://www.w3.org/1999/xlink" x="0px" y="0px"
	 viewBox="0 0 100 100" style="enable-background:new 0 0 100 100;" xml:space="preserve">
<style type="text/css">
	.st0{fill:#EDFFFF;}
</style>
<path class="st0" d="M18,8C12.5,8,8,12.5,8,18v64c0,5.5,4.5,10,10,10h33.7c0.2,0,0.4,0,0.7,0h11.3c0.2,0,0.4,0,0.7,0H82
	c5.5,0,10-4.5,10-10V18c0-5.5-4.5-10-10-10H18z M18,12h64c3.3,0,6,2.7,6,6v64c0,3.3-2.7,6-6,6H66V60h7.6l2.8-14H66v-4
	c0-1.1,0.1-1.2,0.5-1.4S68,40,70,40h6V28.7l-1.1-0.5c0,0-4.6-2.2-10.9-2.2c-4.5,0-8.2,1.8-10.6,4.8S50,37.7,50,42v4h-6v14h6v28H18
	c-3.3,0-6-2.7-6-6V18C12,14.7,14.7,12,18,12z M64,30c4.2,0,6.8,0.9,8,1.4V36h-2c-2.3,0-4.1,0.2-5.7,1.2c-1.6,1-2.3,2.9-2.3,4.8v8
	h9.6l-1.2,6H62v32h-8V56h-6v-6h6v-8c0-3.7,0.9-6.7,2.6-8.8S60.5,30,64,30z"/>
</svg>
