<?xml version="1.0" encoding="utf-8"?>
<!-- Generator: Adobe Illustrator 25.0.0, SVG Export Plug-In . SVG Version: 6.00 Build 0)  -->
<svg version="1.1" id="Capa_1" xmlns="http://www.w3.org/2000/svg" xmlns:xlink="http://www.w3.org/1999/xlink" x="0px" y="0px"
	 viewBox="0 0 100 100" style="enable-background:new 0 0 100 100;" xml:space="preserve">
<style type="text/css">
	.st0{fill:#FFFFFF;}
</style>
<path class="st0" d="M32,6C17.7,6,6,17.7,6,32v36c0,14.3,11.7,26,26,26h36c14.3,0,26-11.7,26-26V32C94,17.7,82.3,6,68,6H32z M32,10
	h36c12.2,0,22,9.8,22,22v36c0,12.2-9.8,22-22,22H32c-12.2,0-22-9.8-22-22V32C10,19.8,19.8,10,32,10z M74,22c-2.2,0-4,1.8-4,4
	s1.8,4,4,4s4-1.8,4-4S76.2,22,74,22z M50,28c-12.1,0-22,9.9-22,22s9.9,22,22,22s22-9.9,22-22S62.1,28,50,28z M50,32c10,0,18,8,18,18
	s-8,18-18,18s-18-8-18-18S40,32,50,32z"/>
</svg>
